<svg version="1.1" id="Layer_1" xmlns="http://www.w3.org/2000/svg" xmlns:xlink="http://www.w3.org/1999/xlink" x="0px" y="0px"
	 width="100%" viewBox="0 0 128 128" enable-background="new 0 0 128 128" xml:space="preserve">
<path fill="#000000" opacity="1.000000" stroke="none" 
	d="
M89.000000,129.000000 
	C59.333332,129.000000 30.166666,129.000000 1.000000,129.000000 
	C1.000000,86.333336 1.000000,43.666668 1.000000,1.000000 
	C43.666668,1.000000 86.333336,1.000000 129.000000,1.000000 
	C129.000000,43.666668 129.000000,86.333336 129.000000,129.000000 
	C115.833336,129.000000 102.666664,129.000000 89.000000,129.000000 
M8.331040,92.673164 
	C11.348715,92.464401 14.366388,92.255646 17.639803,92.142448 
	C17.639803,92.142448 17.849293,91.967377 18.272346,92.757538 
	C42.846813,92.781357 67.421280,92.805183 92.922523,92.982849 
	C101.174591,92.989136 109.427231,93.046806 117.678177,92.953499 
	C119.132439,92.937057 120.579567,92.289459 122.715248,91.646408 
	C123.455048,90.413475 124.886650,89.139687 124.816658,87.954567 
	C124.487701,82.384239 119.083557,85.046104 116.276787,83.236443 
	C115.758499,63.922924 107.734306,48.789955 91.043991,37.024906 
	C91.043991,41.717789 90.953026,45.320225 91.068222,48.916058 
	C91.197113,52.939465 91.243217,56.759708 84.959747,56.582870 
	C84.959747,50.165192 84.812729,43.873894 85.022316,37.594498 
	C85.125725,34.496250 83.636955,33.345253 81.049988,32.274769 
	C78.328880,31.148781 75.903564,29.307980 72.071236,27.015007 
	C65.856522,27.941658 56.896481,24.418228 50.153847,31.707228 
	C49.977676,31.897676 49.368137,31.704189 49.213440,31.894835 
	C48.125843,33.235126 46.316895,34.568638 46.205349,36.017269 
	C45.823189,40.980167 45.921898,45.993202 46.073421,50.979942 
	C46.195396,54.994385 44.410343,56.695145 39.816113,56.561432 
	C39.816113,50.033062 39.816113,43.672180 39.816113,35.927357 
	C33.856102,40.517044 28.066851,43.140259 25.301025,49.186745 
	C22.124033,56.132111 18.869101,63.055614 16.069799,70.154922 
	C14.312106,74.612610 13.330093,79.376152 11.187419,84.013184 
	C8.310910,83.816483 5.568042,84.399384 5.273091,87.679611 
	C5.151501,89.031853 6.913795,90.553505 8.331040,92.673164 
z"/>
<path fill="#073171" opacity="1.000000" stroke="none" 
	d="
M12.000074,84.002472 
	C13.330093,79.376152 14.312106,74.612610 16.069799,70.154922 
	C18.869101,63.055614 22.124033,56.132111 25.301025,49.186745 
	C28.066851,43.140259 33.856102,40.517044 39.816113,35.927357 
	C39.816113,43.672180 39.816113,50.033062 39.816113,56.561432 
	C44.410343,56.695145 46.195396,54.994385 46.073421,50.979942 
	C45.921898,45.993202 45.823189,40.980167 46.205349,36.017269 
	C46.316895,34.568638 48.125843,33.235126 49.213440,31.894835 
	C49.368137,31.704189 49.977676,31.897676 50.153847,31.707228 
	C56.896481,24.418228 65.856522,27.941658 72.071236,27.015007 
	C75.903564,29.307980 78.328880,31.148781 81.049988,32.274769 
	C83.636955,33.345253 85.125725,34.496250 85.022316,37.594498 
	C84.812729,43.873894 84.959747,50.165192 84.959747,56.582870 
	C91.243217,56.759708 91.197113,52.939465 91.068222,48.916058 
	C90.953026,45.320225 91.043991,41.717789 91.043991,37.024906 
	C107.734306,48.789955 115.758499,63.922924 116.276787,83.236443 
	C119.083557,85.046104 124.487701,82.384239 124.816658,87.954567 
	C124.886650,89.139687 123.455048,90.413475 121.927032,91.712402 
	C118.433434,91.708183 115.728043,91.637962 112.827408,91.269531 
	C109.746223,91.171272 106.860291,91.371231 103.524612,91.669022 
	C99.387695,91.859573 95.700516,91.952301 91.686256,91.944519 
	C90.914207,91.754990 90.469238,91.665970 89.885284,91.316101 
	C88.489120,91.226875 87.231934,91.398499 85.654724,91.663483 
	C84.899696,91.694077 84.464691,91.631317 83.818390,91.259796 
	C82.191376,90.634888 80.776489,90.047935 79.359772,90.043480 
	C60.030926,89.982735 40.701782,89.984734 21.372896,90.038559 
	C19.925247,90.042587 18.479029,90.558929 16.630310,90.881500 
	C15.153069,90.898514 14.077666,90.871155 12.724922,90.661758 
	C10.854855,89.870834 9.262126,89.261932 6.962706,88.382874 
	C9.126688,86.501114 10.563382,85.251793 12.000074,84.002472 
z"/>
<path fill="#0C3266" opacity="1.000000" stroke="none" 
	d="
M17.032145,90.837120 
	C18.479029,90.558929 19.925247,90.042587 21.372896,90.038559 
	C40.701782,89.984734 60.030926,89.982735 79.359772,90.043480 
	C80.776489,90.047935 82.191376,90.634888 83.355057,91.356056 
	C61.351772,91.829842 39.600533,91.898613 17.849293,91.967377 
	C17.849293,91.967377 17.639803,92.142448 17.466665,91.780411 
	C17.206400,91.224632 17.119272,91.030876 17.032145,90.837120 
z"/>
<path fill="#E3E4FF" opacity="1.000000" stroke="none" 
	d="
M18.060820,92.362457 
	C39.600533,91.898613 61.351772,91.829842 83.566345,91.664825 
	C84.464691,91.631317 84.899696,91.694077 86.052750,91.761917 
	C87.855278,91.703659 88.939774,91.640305 90.024269,91.576950 
	C90.469238,91.665970 90.914207,91.754990 91.679291,92.140457 
	C91.999397,92.436905 91.995750,92.829010 91.995750,92.829010 
	C67.421280,92.805183 42.846813,92.781357 18.060820,92.362457 
z"/>
<path fill="#0C3266" opacity="1.000000" stroke="none" 
	d="
M11.593747,84.007828 
	C10.563382,85.251793 9.126688,86.501114 6.962706,88.382874 
	C9.262126,89.261932 10.854855,89.870834 12.332739,90.706406 
	C10.751675,91.288086 9.285453,91.643089 7.819231,91.998100 
	C6.913795,90.553505 5.151501,89.031853 5.273091,87.679611 
	C5.568042,84.399384 8.310910,83.816483 11.593747,84.007828 
z"/>
<path fill="#D8E6FF" opacity="1.000000" stroke="none" 
	d="
M92.459137,92.905930 
	C91.995750,92.829010 91.999397,92.436905 92.006363,92.240967 
	C95.700516,91.952301 99.387695,91.859573 103.969604,91.764702 
	C107.583771,91.697617 110.303207,91.632683 113.022652,91.567749 
	C115.728043,91.637962 118.433434,91.708183 121.584412,91.855865 
	C120.579567,92.289459 119.132439,92.937057 117.678177,92.953499 
	C109.427231,93.046806 101.174591,92.989136 92.459137,92.905930 
z"/>
<path fill="#4F668D" opacity="1.000000" stroke="none" 
	d="
M8.075136,92.335632 
	C9.285453,91.643089 10.751675,91.288086 12.610079,90.888428 
	C14.077666,90.871155 15.153069,90.898514 16.630310,90.881500 
	C17.119272,91.030876 17.206400,91.224632 17.338795,91.732635 
	C14.366388,92.255646 11.348715,92.464401 8.075136,92.335632 
z"/>
<path fill="#0C3266" opacity="1.000000" stroke="none" 
	d="
M112.827408,91.269531 
	C110.303207,91.632683 107.583771,91.697617 104.419342,91.666870 
	C106.860291,91.371231 109.746223,91.171272 112.827408,91.269531 
z"/>
<path fill="#0C3266" opacity="1.000000" stroke="none" 
	d="
M89.885284,91.316101 
	C88.939774,91.640305 87.855278,91.703659 86.372765,91.668571 
	C87.231934,91.398499 88.489120,91.226875 89.885284,91.316101 
z"/>
</svg>